<svg width="252" height="332" viewBox="0 0 252 332" fill="none" xmlns="http://www.w3.org/2000/svg">
<g filter="url(#filter0_d_36_228)">
<rect x="15" y="34" width="165" height="212" rx="8" fill="white" shape-rendering="crispEdges"/>
<path d="M116.1 54.2794C109.742 59.824 104.363 65.1021 99.4387 71.9885C97.2669 75.0258 94.8517 78.6007 93.273 81.9759C92.3717 83.7657 90.747 86.5623 90.1932 89.2511C87.1638 86.4112 83.9099 83.1878 80.5806 80.6631C78.2077 78.8642 71.3728 82.5318 74.155 84.6412C79.1413 88.4204 83.2882 93.1275 88.1382 97.0752C90.1668 98.7245 94.6626 95.1427 95.7191 93.64C99.187 88.6892 99.661 82.6373 102.188 77.237C106.048 68.9777 112.891 62.1931 119.649 56.3015C124.126 52.094 119.502 51.318 116.107 54.2794" fill="#1FC28B"/>
<path d="M55.1 165.5V161.78C57.5 160.153 59.5267 158.687 61.18 157.38C62.86 156.047 64.2067 154.82 65.22 153.7C66.26 152.553 67.0067 151.473 67.46 150.46C67.94 149.447 68.18 148.433 68.18 147.42C68.18 146.193 67.8067 145.193 67.06 144.42C66.3133 143.62 65.26 143.22 63.9 143.22C62.4067 143.22 61.2333 143.727 60.38 144.74C59.5533 145.753 59.1 147.193 59.02 149.06L54.26 147.26C54.3933 145.447 54.8733 143.913 55.7 142.66C56.5533 141.38 57.7 140.407 59.14 139.74C60.6067 139.047 62.2867 138.7 64.18 138.7C65.8067 138.7 67.2067 138.927 68.38 139.38C69.58 139.833 70.5667 140.46 71.34 141.26C72.14 142.033 72.74 142.927 73.14 143.94C73.54 144.953 73.74 146.007 73.74 147.1C73.74 148.807 73.3133 150.42 72.46 151.94C71.6333 153.46 70.3533 154.967 68.62 156.46C66.8867 157.953 64.6867 159.527 62.02 161.18V161.22C62.42 161.193 62.9 161.167 63.46 161.14C64.0467 161.113 64.6467 161.1 65.26 161.1C65.8733 161.073 66.4067 161.06 66.86 161.06H74.14V165.5H55.1ZM90.0306 165.5V159.3H77.1506V155.7C77.284 155.433 77.4706 155.113 77.7106 154.74C77.9773 154.34 78.2706 153.887 78.5906 153.38L88.4306 139.1H95.0306V155.3H99.3106V159.3H95.0306V165.5H90.0306ZM81.8706 155.3H90.0706V146.58C90.0706 146.02 90.084 145.42 90.1106 144.78C90.1373 144.14 90.164 143.513 90.1906 142.9H90.1106C89.8173 143.487 89.4573 144.127 89.0306 144.82C88.6306 145.487 88.2573 146.087 87.9106 146.62L82.3906 154.54C82.3106 154.673 82.2173 154.807 82.1106 154.94C82.0306 155.047 81.9506 155.167 81.8706 155.3ZM118.183 136.74L106.583 168.3H101.503L113.063 136.74H118.183ZM120.345 139.1H141.265V143.3C139.052 145.513 137.292 147.793 135.985 150.14C134.679 152.487 133.732 154.927 133.145 157.46C132.585 159.993 132.305 162.673 132.305 165.5H126.825C126.825 162.567 127.185 159.753 127.905 157.06C128.652 154.34 129.785 151.753 131.305 149.3C132.852 146.82 134.812 144.447 137.185 142.18L138.305 143.62H120.345V139.1Z" fill="black"/>
<path d="M31.61 220.35C31.37 221.07 31.01 221.682 30.53 222.186C30.05 222.678 29.486 223.05 28.838 223.302C28.19 223.554 27.476 223.68 26.696 223.68C25.556 223.68 24.566 223.434 23.726 222.942C22.886 222.45 22.238 221.748 21.782 220.836C21.326 219.924 21.098 218.832 21.098 217.56C21.098 216.288 21.326 215.196 21.782 214.284C22.238 213.372 22.886 212.67 23.726 212.178C24.566 211.686 25.55 211.44 26.678 211.44C27.458 211.44 28.16 211.548 28.784 211.764C29.42 211.98 29.96 212.304 30.404 212.736C30.848 213.168 31.19 213.708 31.43 214.356L29.612 215.166C29.372 214.458 29.024 213.942 28.568 213.618C28.112 213.282 27.518 213.114 26.786 213.114C26.054 213.114 25.412 213.288 24.86 213.636C24.308 213.984 23.876 214.488 23.564 215.148C23.264 215.808 23.114 216.612 23.114 217.56C23.114 218.496 23.258 219.3 23.546 219.972C23.834 220.632 24.248 221.136 24.788 221.484C25.328 221.832 25.976 222.006 26.732 222.006C27.464 222.006 28.094 221.82 28.622 221.448C29.162 221.064 29.546 220.494 29.774 219.738L31.61 220.35ZM37.0027 223.68C36.4147 223.68 35.8687 223.572 35.3647 223.356C34.8727 223.14 34.4767 222.792 34.1767 222.312C33.8767 221.832 33.7267 221.208 33.7267 220.44V214.5H35.6527V219.954C35.6527 220.77 35.8267 221.334 36.1747 221.646C36.5227 221.946 37.0087 222.096 37.6327 222.096C37.9327 222.096 38.2207 222.048 38.4967 221.952C38.7847 221.844 39.0427 221.682 39.2707 221.466C39.4987 221.238 39.6727 220.95 39.7927 220.602C39.9247 220.254 39.9907 219.846 39.9907 219.378V214.5H41.9167V223.5H40.2247L40.1347 222.042C39.8227 222.606 39.4027 223.02 38.8747 223.284C38.3467 223.548 37.7227 223.68 37.0027 223.68ZM48.3456 223.68C47.4456 223.68 46.6236 223.506 45.8796 223.158C45.1356 222.81 44.5476 222.318 44.1156 221.682L45.4476 220.53C45.7116 221.022 46.0896 221.418 46.5816 221.718C47.0856 222.006 47.6856 222.15 48.3816 222.15C48.9336 222.15 49.3716 222.054 49.6956 221.862C50.0196 221.67 50.1816 221.4 50.1816 221.052C50.1816 220.824 50.1036 220.626 49.9476 220.458C49.8036 220.278 49.5216 220.14 49.1016 220.044L47.2116 219.648C46.2516 219.456 45.5676 219.15 45.1596 218.73C44.7516 218.298 44.5476 217.752 44.5476 217.092C44.5476 216.6 44.6916 216.144 44.9796 215.724C45.2676 215.304 45.6876 214.968 46.2396 214.716C46.8036 214.452 47.4756 214.32 48.2556 214.32C49.1556 214.32 49.9236 214.482 50.5596 214.806C51.1956 215.118 51.6816 215.568 52.0176 216.156L50.6856 217.272C50.4576 216.792 50.1216 216.438 49.6776 216.21C49.2336 215.97 48.7716 215.85 48.2916 215.85C47.9076 215.85 47.5776 215.898 47.3016 215.994C47.0256 216.09 46.8156 216.222 46.6716 216.39C46.5276 216.558 46.4556 216.756 46.4556 216.984C46.4556 217.224 46.5456 217.434 46.7256 217.614C46.9056 217.794 47.2296 217.932 47.6976 218.028L49.7496 218.46C50.6136 218.628 51.2196 218.916 51.5676 219.324C51.9276 219.72 52.1076 220.206 52.1076 220.782C52.1076 221.358 51.9576 221.868 51.6576 222.312C51.3576 222.744 50.9256 223.08 50.3616 223.32C49.7976 223.56 49.1256 223.68 48.3456 223.68ZM57.081 211.854V220.8C57.081 221.244 57.195 221.568 57.423 221.772C57.663 221.976 57.981 222.078 58.377 222.078C58.701 222.078 58.983 222.03 59.223 221.934C59.463 221.826 59.685 221.682 59.889 221.502L60.321 222.906C60.045 223.146 59.703 223.338 59.295 223.482C58.899 223.614 58.455 223.68 57.963 223.68C57.447 223.68 56.973 223.596 56.541 223.428C56.109 223.26 55.773 222.99 55.533 222.618C55.293 222.234 55.167 221.736 55.155 221.124V212.394L57.081 211.854ZM60.177 214.5V216.012H53.427V214.5H60.177ZM65.9879 214.32C66.8639 214.32 67.6379 214.506 68.3099 214.878C68.9819 215.25 69.5039 215.79 69.8759 216.498C70.2599 217.194 70.4519 218.028 70.4519 219C70.4519 219.972 70.2599 220.812 69.8759 221.52C69.5039 222.216 68.9819 222.75 68.3099 223.122C67.6379 223.494 66.8639 223.68 65.9879 223.68C65.1119 223.68 64.3379 223.494 63.6659 223.122C62.9939 222.75 62.4659 222.216 62.0819 221.52C61.6979 220.812 61.5059 219.972 61.5059 219C61.5059 218.028 61.6979 217.194 62.0819 216.498C62.4659 215.79 62.9939 215.25 63.6659 214.878C64.3379 214.506 65.1119 214.32 65.9879 214.32ZM65.9879 215.832C65.4479 215.832 64.9859 215.958 64.6019 216.21C64.2299 216.45 63.9419 216.804 63.7379 217.272C63.5339 217.74 63.4319 218.316 63.4319 219C63.4319 219.672 63.5339 220.248 63.7379 220.728C63.9419 221.196 64.2299 221.556 64.6019 221.808C64.9859 222.048 65.4479 222.168 65.9879 222.168C66.5279 222.168 66.9839 222.048 67.3559 221.808C67.7279 221.556 68.0159 221.196 68.2199 220.728C68.4239 220.248 68.5259 219.672 68.5259 219C68.5259 218.316 68.4239 217.74 68.2199 217.272C68.0159 216.804 67.7279 216.45 67.3559 216.21C66.9839 215.958 66.5279 215.832 65.9879 215.832ZM72.8749 223.5V214.5H74.5849L74.6749 216.012C74.9869 215.436 75.4009 215.01 75.9169 214.734C76.4449 214.458 77.0029 214.32 77.5909 214.32C78.2389 214.32 78.8329 214.47 79.3729 214.77C79.9249 215.058 80.3389 215.496 80.6149 216.084C80.8069 215.688 81.0709 215.358 81.4069 215.094C81.7429 214.83 82.1149 214.638 82.5229 214.518C82.9309 214.386 83.3329 214.32 83.7289 214.32C84.3049 214.32 84.8449 214.44 85.3489 214.68C85.8529 214.92 86.2609 215.286 86.5729 215.778C86.8849 216.27 87.0409 216.9 87.0409 217.668V223.5H85.1149V217.974C85.1149 217.242 84.9409 216.714 84.5929 216.39C84.2449 216.066 83.8009 215.904 83.2609 215.904C82.8409 215.904 82.4509 216.006 82.0909 216.21C81.7429 216.414 81.4609 216.72 81.2449 217.128C81.0289 217.524 80.9209 218.016 80.9209 218.604V223.5H78.9949V217.974C78.9949 217.242 78.8209 216.714 78.4729 216.39C78.1249 216.066 77.6809 215.904 77.1409 215.904C76.7809 215.904 76.4209 216 76.0609 216.192C75.7009 216.384 75.4009 216.684 75.1609 217.092C74.9209 217.5 74.8009 218.04 74.8009 218.712V223.5H72.8749ZM93.9208 223.68C93.0208 223.68 92.2288 223.494 91.5448 223.122C90.8608 222.75 90.3268 222.216 89.9428 221.52C89.5708 220.812 89.3848 219.972 89.3848 219C89.3848 218.028 89.5708 217.194 89.9428 216.498C90.3268 215.79 90.8548 215.25 91.5268 214.878C92.1988 214.506 92.9608 214.32 93.8128 214.32C94.6888 214.32 95.4328 214.5 96.0448 214.86C96.6568 215.22 97.1248 215.712 97.4488 216.336C97.7728 216.96 97.9348 217.668 97.9348 218.46C97.9348 218.676 97.9288 218.88 97.9168 219.072C97.9048 219.264 97.8868 219.432 97.8628 219.576H90.6268V218.1H97.0168L96.0628 218.388C96.0628 217.572 95.8588 216.948 95.4508 216.516C95.0428 216.072 94.4848 215.85 93.7768 215.85C93.2608 215.85 92.8108 215.97 92.4268 216.21C92.0428 216.45 91.7488 216.81 91.5448 217.29C91.3408 217.758 91.2388 218.334 91.2388 219.018C91.2388 219.69 91.3468 220.26 91.5628 220.728C91.7788 221.196 92.0848 221.55 92.4808 221.79C92.8768 222.03 93.3448 222.15 93.8848 222.15C94.4848 222.15 94.9708 222.036 95.3428 221.808C95.7148 221.58 96.0088 221.262 96.2248 220.854L97.7548 221.574C97.5388 222.006 97.2448 222.384 96.8728 222.708C96.5128 223.02 96.0808 223.26 95.5768 223.428C95.0728 223.596 94.5208 223.68 93.9208 223.68ZM100.367 223.5V214.5H102.005L102.185 216.12C102.425 215.532 102.779 215.088 103.247 214.788C103.727 214.476 104.315 214.32 105.011 214.32C105.191 214.32 105.371 214.338 105.551 214.374C105.731 214.398 105.881 214.44 106.001 214.5L105.731 216.192C105.599 216.144 105.449 216.108 105.281 216.084C105.125 216.048 104.909 216.03 104.633 216.03C104.261 216.03 103.895 216.132 103.535 216.336C103.175 216.528 102.875 216.822 102.635 217.218C102.407 217.614 102.293 218.118 102.293 218.73V223.5H100.367ZM116.707 223.68C115.807 223.68 114.985 223.506 114.241 223.158C113.497 222.81 112.909 222.318 112.477 221.682L113.809 220.53C114.073 221.022 114.451 221.418 114.943 221.718C115.447 222.006 116.047 222.15 116.743 222.15C117.295 222.15 117.733 222.054 118.057 221.862C118.381 221.67 118.543 221.4 118.543 221.052C118.543 220.824 118.465 220.626 118.309 220.458C118.165 220.278 117.883 220.14 117.463 220.044L115.573 219.648C114.613 219.456 113.929 219.15 113.521 218.73C113.113 218.298 112.909 217.752 112.909 217.092C112.909 216.6 113.053 216.144 113.341 215.724C113.629 215.304 114.049 214.968 114.601 214.716C115.165 214.452 115.837 214.32 116.617 214.32C117.517 214.32 118.285 214.482 118.921 214.806C119.557 215.118 120.043 215.568 120.379 216.156L119.047 217.272C118.819 216.792 118.483 216.438 118.039 216.21C117.595 215.97 117.133 215.85 116.653 215.85C116.269 215.85 115.939 215.898 115.663 215.994C115.387 216.09 115.177 216.222 115.033 216.39C114.889 216.558 114.817 216.756 114.817 216.984C114.817 217.224 114.907 217.434 115.087 217.614C115.267 217.794 115.591 217.932 116.059 218.028L118.111 218.46C118.975 218.628 119.581 218.916 119.929 219.324C120.289 219.72 120.469 220.206 120.469 220.782C120.469 221.358 120.319 221.868 120.019 222.312C119.719 222.744 119.287 223.08 118.723 223.32C118.159 223.56 117.487 223.68 116.707 223.68ZM126.757 223.68C125.857 223.68 125.065 223.494 124.381 223.122C123.697 222.75 123.163 222.216 122.779 221.52C122.407 220.812 122.221 219.972 122.221 219C122.221 218.028 122.407 217.194 122.779 216.498C123.163 215.79 123.691 215.25 124.363 214.878C125.035 214.506 125.797 214.32 126.649 214.32C127.525 214.32 128.269 214.5 128.881 214.86C129.493 215.22 129.961 215.712 130.285 216.336C130.609 216.96 130.771 217.668 130.771 218.46C130.771 218.676 130.765 218.88 130.753 219.072C130.741 219.264 130.723 219.432 130.699 219.576H123.463V218.1H129.853L128.899 218.388C128.899 217.572 128.695 216.948 128.287 216.516C127.879 216.072 127.321 215.85 126.613 215.85C126.097 215.85 125.647 215.97 125.263 216.21C124.879 216.45 124.585 216.81 124.381 217.29C124.177 217.758 124.075 218.334 124.075 219.018C124.075 219.69 124.183 220.26 124.399 220.728C124.615 221.196 124.921 221.55 125.317 221.79C125.713 222.03 126.181 222.15 126.721 222.15C127.321 222.15 127.807 222.036 128.179 221.808C128.551 221.58 128.845 221.262 129.061 220.854L130.591 221.574C130.375 222.006 130.081 222.384 129.709 222.708C129.349 223.02 128.917 223.26 128.413 223.428C127.909 223.596 127.357 223.68 126.757 223.68ZM133.203 223.5V214.5H134.841L135.021 216.12C135.261 215.532 135.615 215.088 136.083 214.788C136.563 214.476 137.151 214.32 137.847 214.32C138.027 214.32 138.207 214.338 138.387 214.374C138.567 214.398 138.717 214.44 138.837 214.5L138.567 216.192C138.435 216.144 138.285 216.108 138.117 216.084C137.961 216.048 137.745 216.03 137.469 216.03C137.097 216.03 136.731 216.132 136.371 216.336C136.011 216.528 135.711 216.822 135.471 217.218C135.243 217.614 135.129 218.118 135.129 218.73V223.5H133.203ZM146.578 214.5H148.594L145.012 223.5H142.906L139.306 214.5H141.412L143.968 221.826L146.578 214.5ZM151.208 212.988C150.788 212.988 150.464 212.886 150.236 212.682C150.02 212.466 149.912 212.166 149.912 211.782C149.912 211.398 150.02 211.104 150.236 210.9C150.464 210.696 150.788 210.594 151.208 210.594C151.616 210.594 151.928 210.696 152.144 210.9C152.372 211.104 152.486 211.398 152.486 211.782C152.486 212.166 152.372 212.466 152.144 212.682C151.928 212.886 151.616 212.988 151.208 212.988ZM152.162 214.5V223.5H150.236V214.5H152.162ZM159.064 214.32C159.784 214.32 160.396 214.428 160.9 214.644C161.416 214.848 161.848 215.142 162.196 215.526C162.544 215.91 162.808 216.348 162.988 216.84L161.17 217.56C161.014 217.008 160.762 216.588 160.414 216.3C160.078 216 159.634 215.85 159.082 215.85C158.542 215.85 158.08 215.976 157.696 216.228C157.312 216.468 157.018 216.822 156.814 217.29C156.622 217.758 156.526 218.334 156.526 219.018C156.526 219.69 156.628 220.26 156.832 220.728C157.036 221.196 157.33 221.55 157.714 221.79C158.098 222.03 158.554 222.15 159.082 222.15C159.49 222.15 159.844 222.084 160.144 221.952C160.444 221.808 160.69 221.61 160.882 221.358C161.086 221.094 161.224 220.776 161.296 220.404L163.042 220.998C162.874 221.538 162.61 222.012 162.25 222.42C161.902 222.816 161.464 223.128 160.936 223.356C160.408 223.572 159.802 223.68 159.118 223.68C158.23 223.68 157.444 223.494 156.76 223.122C156.076 222.75 155.542 222.216 155.158 221.52C154.786 220.812 154.6 219.972 154.6 219C154.6 218.028 154.786 217.194 155.158 216.498C155.542 215.79 156.07 215.25 156.742 214.878C157.426 214.506 158.2 214.32 159.064 214.32ZM169.243 223.68C168.343 223.68 167.551 223.494 166.867 223.122C166.183 222.75 165.649 222.216 165.265 221.52C164.893 220.812 164.707 219.972 164.707 219C164.707 218.028 164.893 217.194 165.265 216.498C165.649 215.79 166.177 215.25 166.849 214.878C167.521 214.506 168.283 214.32 169.135 214.32C170.011 214.32 170.755 214.5 171.367 214.86C171.979 215.22 172.447 215.712 172.771 216.336C173.095 216.96 173.257 217.668 173.257 218.46C173.257 218.676 173.251 218.88 173.239 219.072C173.227 219.264 173.209 219.432 173.185 219.576H165.949V218.1H172.339L171.385 218.388C171.385 217.572 171.181 216.948 170.773 216.516C170.365 216.072 169.807 215.85 169.099 215.85C168.583 215.85 168.133 215.97 167.749 216.21C167.365 216.45 167.071 216.81 166.867 217.29C166.663 217.758 166.561 218.334 166.561 219.018C166.561 219.69 166.669 220.26 166.885 220.728C167.101 221.196 167.407 221.55 167.803 221.79C168.199 222.03 168.667 222.15 169.207 222.15C169.807 222.15 170.293 222.036 170.665 221.808C171.037 221.58 171.331 221.262 171.547 220.854L173.077 221.574C172.861 222.006 172.567 222.384 172.195 222.708C171.835 223.02 171.403 223.26 170.899 223.428C170.395 223.596 169.843 223.68 169.243 223.68Z" fill="#636363"/>
</g>
<defs>
<filter id="filter0_d_36_228" x="-33" y="0" width="285" height="332" filterUnits="userSpaceOnUse" color-interpolation-filters="sRGB">
<feFlood flood-opacity="0" result="BackgroundImageFix"/>
<feColorMatrix in="SourceAlpha" type="matrix" values="0 0 0 0 0 0 0 0 0 0 0 0 0 0 0 0 0 0 127 0" result="hardAlpha"/>
<feOffset dx="12" dy="26"/>
<feGaussianBlur stdDeviation="30"/>
<feComposite in2="hardAlpha" operator="out"/>
<feColorMatrix type="matrix" values="0 0 0 0 0.121569 0 0 0 0 0.760784 0 0 0 0 0.545098 0 0 0 0.2 0"/>
<feBlend mode="normal" in2="BackgroundImageFix" result="effect1_dropShadow_36_228"/>
<feBlend mode="normal" in="SourceGraphic" in2="effect1_dropShadow_36_228" result="shape"/>
</filter>
</defs>
</svg>
