<svg width="243" height="187" viewBox="0 0 243 187" fill="none" xmlns="http://www.w3.org/2000/svg">
<g filter="url(#filter0_d_36_232)">
<rect x="48" y="34" width="172" height="67" rx="8" fill="white" shape-rendering="crispEdges"/>
<path d="M100 66.5165C102.173 66.5165 103.934 64.7552 103.934 62.5825C103.934 60.4098 102.173 58.6484 100 58.6484C97.8273 58.6484 96.066 60.4098 96.066 62.5825C96.066 64.7552 97.8273 66.5165 100 66.5165Z" stroke="#1FC28B" stroke-width="2" stroke-linecap="round" stroke-linejoin="round"/>
<path d="M107.868 66.5164C104.918 73.401 100 81.269 100 81.269C100 81.269 95.0825 73.401 92.1319 66.5164C89.1814 59.6319 94.099 53.7308 100 53.7308C105.901 53.7308 110.819 59.6319 107.868 66.5164Z" stroke="#1FC28B" stroke-width="2" stroke-linecap="round" stroke-linejoin="round"/>
<path d="M137.23 60.8V74H134.47V60.8H137.23ZM143.921 60.94V70.74C143.921 71.22 144.041 71.5733 144.281 71.8C144.535 72.0133 144.875 72.12 145.301 72.12C145.635 72.12 145.928 72.0733 146.181 71.98C146.435 71.8733 146.661 71.7333 146.861 71.56L147.301 73.38C146.981 73.6333 146.581 73.8333 146.101 73.98C145.621 74.1267 145.115 74.2 144.581 74.2C143.915 74.2 143.321 74.1 142.801 73.9C142.295 73.7 141.895 73.38 141.601 72.94C141.321 72.5 141.181 71.9133 141.181 71.18V61.7L143.921 60.94ZM147.121 64V66.04H139.341V64H147.121ZM154.773 67.62C154.773 67.0467 154.606 66.6 154.273 66.28C153.953 65.96 153.526 65.8 152.993 65.8C152.499 65.8 152.066 65.9267 151.693 66.18C151.319 66.4333 151.046 66.8533 150.873 67.44L148.533 66.72C148.759 65.84 149.253 65.1333 150.013 64.6C150.786 64.0667 151.819 63.8 153.113 63.8C153.993 63.8 154.759 63.94 155.413 64.22C156.066 64.4867 156.573 64.8933 156.933 65.44C157.306 65.9867 157.493 66.6733 157.493 67.5V71.56C157.493 72.0667 157.733 72.32 158.213 72.32C158.439 72.32 158.653 72.2867 158.853 72.22L158.693 73.92C158.346 74.0933 157.913 74.18 157.393 74.18C156.926 74.18 156.506 74.1 156.133 73.94C155.759 73.78 155.466 73.54 155.253 73.22C155.039 72.8867 154.933 72.4733 154.933 71.98V71.9L155.413 71.82C155.333 72.3267 155.113 72.76 154.753 73.12C154.393 73.4667 153.953 73.7333 153.433 73.92C152.926 74.1067 152.399 74.2 151.853 74.2C151.173 74.2 150.586 74.1 150.093 73.9C149.599 73.6867 149.219 73.38 148.953 72.98C148.686 72.58 148.553 72.0867 148.553 71.5C148.553 70.7533 148.793 70.1467 149.273 69.68C149.753 69.2 150.439 68.8733 151.333 68.7L155.093 67.94L155.073 69.64L152.673 70.12C152.219 70.2133 151.873 70.34 151.633 70.5C151.406 70.6467 151.293 70.8933 151.293 71.24C151.293 71.5733 151.413 71.8267 151.653 72C151.906 72.1733 152.206 72.26 152.553 72.26C152.833 72.26 153.106 72.2267 153.373 72.16C153.639 72.0933 153.879 71.9867 154.093 71.84C154.306 71.6933 154.473 71.4933 154.593 71.24C154.713 70.9867 154.773 70.68 154.773 70.32V67.62ZM163.257 59.62V70.92C163.257 71.3867 163.337 71.7133 163.497 71.9C163.657 72.0867 163.924 72.18 164.297 72.18C164.524 72.18 164.711 72.1667 164.857 72.14C165.004 72.1 165.191 72.0467 165.417 71.98L165.177 73.78C164.951 73.9133 164.664 74.0133 164.317 74.08C163.984 74.16 163.651 74.2 163.317 74.2C162.344 74.2 161.631 73.9667 161.177 73.5C160.737 73.02 160.517 72.26 160.517 71.22V59.62H163.257ZM175.934 64L171.894 74.62C171.574 75.5267 171.214 76.2467 170.814 76.78C170.427 77.3133 169.974 77.7 169.454 77.94C168.947 78.18 168.34 78.3 167.634 78.3C167.114 78.3 166.634 78.2333 166.194 78.1C165.767 77.98 165.394 77.82 165.074 77.62L165.654 75.64C165.907 75.84 166.174 75.98 166.454 76.06C166.734 76.1533 167.054 76.2 167.414 76.2C167.787 76.2 168.107 76.12 168.374 75.96C168.654 75.8 168.887 75.48 169.074 75L169.414 74.14L168.314 71.54L165.254 64H168.294L170.194 70L170.714 72L171.334 69.88L173.154 64H175.934Z" fill="#373737"/>
</g>
<defs>
<filter id="filter0_d_36_232" x="0" y="0" width="292" height="187" filterUnits="userSpaceOnUse" color-interpolation-filters="sRGB">
<feFlood flood-opacity="0" result="BackgroundImageFix"/>
<feColorMatrix in="SourceAlpha" type="matrix" values="0 0 0 0 0 0 0 0 0 0 0 0 0 0 0 0 0 0 127 0" result="hardAlpha"/>
<feOffset dx="12" dy="26"/>
<feGaussianBlur stdDeviation="30"/>
<feComposite in2="hardAlpha" operator="out"/>
<feColorMatrix type="matrix" values="0 0 0 0 0.121569 0 0 0 0 0.760784 0 0 0 0 0.545098 0 0 0 0.2 0"/>
<feBlend mode="normal" in2="BackgroundImageFix" result="effect1_dropShadow_36_232"/>
<feBlend mode="normal" in="SourceGraphic" in2="effect1_dropShadow_36_232" result="shape"/>
</filter>
</defs>
</svg>
