<svg width="61" height="59" viewBox="0 0 61 59" fill="none" xmlns="http://www.w3.org/2000/svg">
<path d="M16.5714 26.9628C17.2071 26.9628 17.8286 27.1453 18.3572 27.4872C18.8858 27.8291 19.2977 28.3151 19.541 28.8837C19.7843 29.4523 19.848 30.078 19.7239 30.6816C19.5999 31.2852 19.2938 31.8396 18.8443 32.2748C18.3947 32.71 17.822 33.0064 17.1985 33.1264C16.575 33.2465 15.9287 33.1849 15.3414 32.9494C14.754 32.7139 14.252 32.315 13.8988 31.8033C13.5456 31.2916 13.3571 30.69 13.3571 30.0745C13.3571 29.2492 13.6958 28.4578 14.2986 27.8742C14.9014 27.2906 15.7189 26.9628 16.5714 26.9628ZM16.5714 22.8138C15.0881 22.8138 13.638 23.2397 12.4046 24.0375C11.1713 24.8353 10.21 25.9692 9.64232 27.296C9.07466 28.6227 8.92614 30.0826 9.21552 31.491C9.50491 32.8994 10.2192 34.1932 11.2681 35.2086C12.317 36.224 13.6534 36.9155 15.1082 37.1957C16.5631 37.4758 18.0711 37.3321 19.4415 36.7825C20.812 36.233 21.9833 35.3024 22.8074 34.1083C23.6315 32.9143 24.0714 31.5105 24.0714 30.0745C24.0714 28.1489 23.2812 26.3021 21.8747 24.9404C20.4682 23.5788 18.5605 22.8138 16.5714 22.8138Z" fill="#1FC28B"/>
<path d="M49.7857 24.8883H32.6429C31.5062 24.8883 30.4161 25.3254 29.6124 26.1035C28.8087 26.8816 28.3571 27.9369 28.3571 29.0372V41.4841H4.78571V17.835L30.5 4.43386L57.35 18.4159L59.3643 14.7648L31.5071 0.243406C31.1971 0.0835876 30.8512 0 30.5 0C30.1488 0 29.8029 0.0835876 29.4929 0.243406L1.63571 14.7648C1.29354 14.9412 1.00721 15.2041 0.807208 15.5256C0.607207 15.8471 0.501034 16.2151 0.5 16.5903V58.08H4.78571V45.6331H56.2143V58.08H60.5V35.2607C60.5 32.5098 59.3712 29.8715 57.3619 27.9263C55.3525 25.9811 52.6273 24.8883 49.7857 24.8883ZM32.6429 41.4841V29.0372H49.7857C51.4907 29.0372 53.1258 29.6929 54.3314 30.86C55.537 32.0272 56.2143 33.6101 56.2143 35.2607V41.4841H32.6429Z" fill="#1FC28B"/>
</svg>
