<svg width="61" height="70" viewBox="0 0 61 70" fill="none" xmlns="http://www.w3.org/2000/svg">
<path d="M18.2273 42.17C18.2273 43.085 17.8681 43.9625 17.2288 44.6095C16.5894 45.2565 15.7223 45.62 14.8182 45.62C13.914 45.62 13.0469 45.2565 12.4076 44.6095C11.7683 43.9625 11.4091 43.085 11.4091 42.17C11.4091 41.255 11.7683 40.3775 12.4076 39.7305C13.0469 39.0835 13.914 38.72 14.8182 38.72C15.7223 38.72 16.5894 39.0835 17.2288 39.7305C17.8681 40.3775 18.2273 41.255 18.2273 42.17ZM46.1818 45.62C47.086 45.62 47.9531 45.2565 48.5924 44.6095C49.2317 43.9625 49.5909 43.085 49.5909 42.17C49.5909 41.255 49.2317 40.3775 48.5924 39.7305C47.9531 39.0835 47.086 38.72 46.1818 38.72C45.2777 38.72 44.4106 39.0835 43.7712 39.7305C43.1319 40.3775 42.7727 41.255 42.7727 42.17C42.7727 43.085 43.1319 43.9625 43.7712 44.6095C44.4106 45.2565 45.2777 45.62 46.1818 45.62ZM22.3182 47.69C22.3182 47.141 22.5337 46.6145 22.9173 46.2263C23.3009 45.8381 23.8211 45.62 24.3636 45.62H36.6364C37.1789 45.62 37.6991 45.8381 38.0827 46.2263C38.4663 46.6145 38.6818 47.141 38.6818 47.69C38.6818 48.239 38.4663 48.7655 38.0827 49.1537C37.6991 49.5419 37.1789 49.76 36.6364 49.76H24.3636C23.8211 49.76 23.3009 49.5419 22.9173 49.1537C22.5337 48.7655 22.3182 48.239 22.3182 47.69ZM19.5909 7.67002V2.84002C19.5909 2.10802 19.8782 1.406 20.3897 0.888402C20.9012 0.370802 21.5949 0.0800171 22.3182 0.0800171H38.6818C39.4051 0.0800171 40.0988 0.370802 40.6103 0.888402C41.1218 1.406 41.4091 2.10802 41.4091 2.84002V7.67002H41.84C44.1206 7.66996 46.3359 8.44135 48.1336 9.86158C49.9313 11.2818 51.2084 13.2694 51.7618 15.5084L53.4036 22.16H57.0909C57.6334 22.16 58.1537 22.3781 58.5373 22.7663C58.9209 23.1545 59.1364 23.681 59.1364 24.23C59.1364 24.779 58.9209 25.3055 58.5373 25.6937C58.1537 26.0819 57.6334 26.3 57.0909 26.3H54.4264L55.19 29.3912C56.7264 29.8664 58.0715 30.8281 59.0274 32.1348C59.9833 33.4415 60.4995 35.0242 60.5 36.65V61.49C60.5 63.503 59.7098 65.4336 58.3033 66.857C56.8968 68.2804 54.9891 69.08 53 69.08H50.2727C48.2836 69.08 46.3759 68.2804 44.9694 66.857C43.5629 65.4336 42.7727 63.503 42.7727 61.49V58.73H18.2273V61.49C18.2273 63.503 17.4371 65.4336 16.0306 66.857C14.6241 68.2804 12.7164 69.08 10.7273 69.08H8C6.01088 69.08 4.10322 68.2804 2.6967 66.857C1.29018 65.4336 0.5 63.503 0.5 61.49V36.65C0.5 33.2276 2.73636 30.3379 5.81 29.3885L6.57364 26.3H3.90909C3.3666 26.3 2.84633 26.0819 2.46274 25.6937C2.07914 25.3055 1.86364 24.779 1.86364 24.23C1.86364 23.681 2.07914 23.1545 2.46274 22.7663C2.84633 22.3781 3.3666 22.16 3.90909 22.16H7.59636L9.23818 15.5084C9.79162 13.2694 11.0687 11.2818 12.8664 9.86158C14.6641 8.44135 16.8794 7.66996 19.16 7.67002H19.5909ZM23.6818 7.67002H37.3182V4.22002H23.6818V7.67002ZM19.16 11.81C17.792 11.8105 16.4634 12.2735 15.3852 13.1256C14.307 13.9777 13.5411 15.17 13.2091 16.5131L10.1082 29.06H50.8918L47.7936 16.5131C47.4616 15.1696 46.6952 13.9769 45.6165 13.1248C44.5377 12.2726 43.2085 11.8099 41.84 11.81H19.16ZM46.8636 58.73V61.49C46.8636 63.3944 48.3909 64.94 50.2727 64.94H53C54.8818 64.94 56.4091 63.3944 56.4091 61.49V58.73H46.8636ZM14.1364 61.49V58.73H4.59091V61.49C4.59091 63.3944 6.11818 64.94 8 64.94H10.7273C12.6091 64.94 14.1364 63.3944 14.1364 61.49ZM53 33.2H8C6.11818 33.2 4.59091 34.7456 4.59091 36.65V54.59H56.4091V36.65C56.4091 34.7456 54.8818 33.2 53 33.2Z" fill="#1FC28B"/>
</svg>
