<svg width="21" height="22" viewBox="0 0 21 22" fill="none" xmlns="http://www.w3.org/2000/svg">
<path d="M10.0144 21.04C7.27716 21.04 6.95447 21.0248 5.88626 20.9758C5.05325 20.9471 4.23102 20.7696 3.45498 20.4509C2.79089 20.1799 2.1878 19.7672 1.68401 19.2388C1.18021 18.7104 0.786727 18.078 0.52854 17.3817C0.236236 16.5651 0.0785776 15.7024 0.0623121 14.8304C-8.29038e-09 13.7129 0 13.3466 0 10.499C0 7.62111 0.0144653 7.28514 0.0623121 6.17108C0.0789334 5.30027 0.236587 4.43875 0.52854 3.62332C0.786431 2.92611 1.18018 2.29296 1.68464 1.76429C2.18911 1.23561 2.79319 0.823052 3.45832 0.552947C4.23571 0.245213 5.05768 0.079494 5.88849 0.0629939C6.95113 -1.17336e-07 7.30053 0 10.0144 0C12.774 0 13.0911 0.0151651 14.1426 0.0629939C14.9749 0.0793257 15.8006 0.244977 16.5795 0.552947C17.2444 0.823365 17.8483 1.23604 18.3528 1.76467C18.8572 2.2933 19.251 2.9263 19.5092 3.62332C19.8063 4.45158 19.9655 5.32649 19.9777 6.20958C20.04 7.32714 20.04 7.69227 20.04 10.5387C20.04 13.3851 20.0244 13.7584 19.9777 14.8631C19.9611 15.7359 19.803 16.5994 19.5103 17.4167C19.2515 18.1135 18.8573 18.7463 18.3527 19.2748C17.8482 19.8034 17.2443 20.2162 16.5795 20.4871C15.8006 20.7927 14.9783 20.9583 14.1471 20.9758C13.0844 21.04 12.7361 21.04 10.0144 21.04ZM9.97661 1.84666C7.2549 1.84666 6.97227 1.86066 5.90963 1.91082C5.27499 1.91952 4.64648 2.04223 4.0514 2.27362C3.61736 2.44804 3.223 2.71587 2.89375 3.05985C2.56449 3.40384 2.30764 3.81634 2.13975 4.27076C1.91721 4.9007 1.80037 5.5668 1.7937 6.23874C1.73472 7.36913 1.73472 7.66544 1.73472 10.499C1.73472 13.2987 1.74474 13.6382 1.7937 14.7616C1.80371 15.4265 1.92055 16.0856 2.13975 16.7097C2.48024 17.6278 3.17458 18.3534 4.05251 18.7057C4.64682 18.9386 5.27521 19.0613 5.90963 19.0685C6.98674 19.1339 7.27048 19.1339 9.97661 19.1339C12.7061 19.1339 12.9887 19.1199 14.0425 19.0685C14.6772 19.0605 15.3058 18.9377 15.9007 18.7057C16.3324 18.53 16.7245 18.262 17.0521 17.9187C17.3797 17.5755 17.6356 17.1646 17.8034 16.7121C18.026 16.0821 18.1428 15.4149 18.1495 14.7429H18.1617C18.2096 13.6277 18.2096 13.3302 18.2096 10.4803C18.2096 7.63044 18.1973 7.33064 18.1495 6.21658C18.1394 5.55217 18.0224 4.89432 17.8034 4.27076C17.6359 3.81761 17.3802 3.406 17.0527 3.06215C16.7251 2.7183 16.3327 2.44976 15.9007 2.27362C15.3059 2.0411 14.6772 1.91836 14.0425 1.91082C12.9665 1.84666 12.685 1.84666 9.97661 1.84666ZM10.0144 15.8873C8.99694 15.888 8.0021 15.5723 7.15575 14.9802C6.30939 14.3881 5.64954 13.5461 5.25965 12.5608C4.86976 11.5755 4.76735 10.4911 4.96537 9.44479C5.16339 8.39846 5.65294 7.43719 6.37211 6.68257C7.09128 5.92795 8.00776 5.41388 9.00563 5.20537C10.0035 4.99687 11.0379 5.1033 11.9781 5.5112C12.9183 5.9191 13.722 6.61015 14.2875 7.49694C14.853 8.38374 15.155 9.42644 15.1552 10.4932C15.1534 11.9224 14.6114 13.2927 13.6478 14.3037C12.6842 15.3148 11.3777 15.8842 10.0144 15.8873ZM10.0144 6.99117C9.35422 6.99117 8.70882 7.19642 8.15986 7.58097C7.61091 7.96552 7.18305 8.51209 6.93039 9.15157C6.67774 9.79105 6.61163 10.4947 6.74043 11.1736C6.86924 11.8525 7.18717 12.476 7.65401 12.9655C8.12086 13.4549 8.71566 13.7882 9.3632 13.9233C10.0107 14.0583 10.6819 13.989 11.2919 13.7241C11.9019 13.4592 12.4232 13.0107 12.79 12.4351C13.1568 11.8596 13.3526 11.183 13.3526 10.4908C13.3505 9.56333 12.9982 8.67443 12.3726 8.01858C11.747 7.36273 10.8991 6.99333 10.0144 6.99117ZM15.3555 6.15941C15.198 6.1588 15.0421 6.12567 14.8968 6.0619C14.7515 5.99814 14.6196 5.905 14.5086 5.78779C14.2845 5.55108 14.1592 5.23072 14.1604 4.8972C14.1616 4.56368 14.2891 4.24431 14.5149 4.00935C14.7407 3.77439 15.0462 3.64308 15.3644 3.64432C15.6825 3.64556 15.9871 3.77924 16.2112 4.01595C16.4354 4.25266 16.5606 4.57301 16.5594 4.90653C16.5583 5.24006 16.4307 5.55943 16.205 5.79439C15.9792 6.02935 15.6736 6.16065 15.3555 6.15941Z" fill="white"/>
</svg>
