<svg width="20" height="21" viewBox="0 0 20 21" fill="none" xmlns="http://www.w3.org/2000/svg">
<path fill-rule="evenodd" clip-rule="evenodd" d="M17.0859 2.94689C16.1634 2.02272 15.0658 1.28992 13.8567 0.790952C12.6476 0.291982 11.3511 0.0367599 10.0421 0.0400709C4.55351 0.0400709 0.0854131 4.48586 0.0831946 9.95063C0.0831946 11.6972 0.541319 13.4017 1.41209 14.9054L0 20.04L5.27897 18.6611C6.73919 19.4523 8.37513 19.8671 10.0377 19.8678H10.0421C15.5296 19.8678 19.9977 15.422 20 9.95726C20.0037 8.65508 19.7481 7.36507 19.248 6.16179C18.7478 4.95851 18.013 3.86582 17.0859 2.94689ZM10.0421 18.1953H10.0388C8.5563 18.1954 7.10108 17.7984 5.82583 17.046L5.52412 16.8672L2.39156 17.6852L3.22684 14.6459L3.0305 14.3346C2.20165 13.0213 1.76287 11.5015 1.76483 9.95063C1.76705 5.4088 5.47974 1.71373 10.0455 1.71373C11.1328 1.71132 12.2098 1.92358 13.2142 2.3382C14.2186 2.75283 15.1304 3.3616 15.8968 4.12927C16.6673 4.89328 17.278 5.8017 17.6937 6.80204C18.1093 7.80237 18.3216 8.87477 18.3183 9.95726C18.3161 14.4991 14.6034 18.1953 10.0421 18.1953ZM14.5823 12.025C14.3327 11.9003 13.1103 11.3019 12.8818 11.2191C12.6544 11.1363 12.4892 11.0955 12.3228 11.3428C12.1564 11.5901 11.6794 12.1476 11.5341 12.3132C11.3888 12.4788 11.2435 12.4987 10.995 12.375C10.7465 12.2514 9.94452 11.9897 8.99388 11.1463C8.254 10.4894 7.75484 9.67905 7.60952 9.43065C7.46421 9.18225 7.59399 9.04867 7.71934 8.92502C7.83138 8.81462 7.96782 8.63577 8.09205 8.49115C8.21629 8.34653 8.25733 8.24386 8.34053 8.07826C8.42372 7.91266 8.38268 7.76803 8.31945 7.64439C8.25733 7.51963 7.75927 6.30083 7.55184 5.80513C7.35107 5.32489 7.14585 5.38893 6.99278 5.3823C6.83424 5.37585 6.67557 5.3729 6.5169 5.37347C6.39073 5.37667 6.26658 5.40578 6.15225 5.45897C6.03791 5.51216 5.93584 5.58829 5.85246 5.68259C5.62395 5.93099 4.98169 6.52935 4.98169 7.74816C4.98169 8.96697 5.87353 10.1449 5.99777 10.3105C6.12201 10.4761 7.75262 12.9767 10.2485 14.0498C10.843 14.3048 11.3067 14.4571 11.6672 14.572C12.2629 14.7607 12.8053 14.7331 13.2346 14.6702C13.7127 14.5996 14.7066 14.0718 14.914 13.4934C15.1214 12.9149 15.1214 12.4192 15.0593 12.3154C14.9972 12.2116 14.8297 12.1487 14.5823 12.025Z" fill="white"/>
</svg>
