<svg width="24" height="20" viewBox="0 0 24 20" fill="none" xmlns="http://www.w3.org/2000/svg">
<path d="M23 1.10625C23 1.10625 20.982 2.29825 19.86 2.63625C19.2577 1.94376 18.4573 1.45294 17.567 1.23017C16.6767 1.00741 15.7395 1.06344 14.8821 1.3907C14.0247 1.71796 13.2884 2.30065 12.773 3.05996C12.2575 3.81928 11.9877 4.71858 12 5.63625V6.63625C10.2426 6.68182 8.50127 6.29206 6.93101 5.50169C5.36074 4.71133 4.01032 3.54488 3 2.10625C3 2.10625 -1 11.1062 8 15.1062C5.94053 16.5042 3.48716 17.2052 1 17.1062C10 22.1062 21 17.1062 21 5.60625C21 5.32825 20.972 5.05025 20.92 4.77625C21.94 3.77025 23 1.10625 23 1.10625Z" stroke="white" stroke-width="1.5" stroke-linecap="round" stroke-linejoin="round"/>
</svg>
